<mxfile host="app.diagrams.net" modified="2021-02-03T07:26:53.447Z" agent="5.0 (Windows NT 10.0; WOW64) AppleWebKit/537.36 (KHTML, like Gecko) Chrome/83.0.4103.116 Safari/537.36" etag="ixpvoudNUBzTwyh5K3rh" version="14.2.7" type="github">
  <diagram id="ABwTwTh49dXLUKhgxuJ5" name="Page-1">
    <mxGraphModel dx="2062" dy="1122" grid="1" gridSize="10" guides="1" tooltips="1" connect="1" arrows="1" fold="1" page="1" pageScale="1" pageWidth="827" pageHeight="1169" math="0" shadow="0">
      <root>
        <mxCell id="0" />
        <mxCell id="1" parent="0" />
        <mxCell id="eHAaFGgThveNmhsqAu0i-4" style="edgeStyle=orthogonalEdgeStyle;rounded=0;orthogonalLoop=1;jettySize=auto;html=1;exitX=0.5;exitY=1;exitDx=0;exitDy=0;" edge="1" parent="1" source="eHAaFGgThveNmhsqAu0i-1" target="eHAaFGgThveNmhsqAu0i-2">
          <mxGeometry relative="1" as="geometry" />
        </mxCell>
        <mxCell id="eHAaFGgThveNmhsqAu0i-1" value="" style="ellipse;html=1;shape=endState;fillColor=#000000;strokeColor=#ff0000;" vertex="1" parent="1">
          <mxGeometry x="384" y="60" width="30" height="30" as="geometry" />
        </mxCell>
        <mxCell id="eHAaFGgThveNmhsqAu0i-5" style="edgeStyle=orthogonalEdgeStyle;rounded=0;orthogonalLoop=1;jettySize=auto;html=1;exitX=0.5;exitY=1;exitDx=0;exitDy=0;" edge="1" parent="1" source="eHAaFGgThveNmhsqAu0i-2" target="eHAaFGgThveNmhsqAu0i-3">
          <mxGeometry relative="1" as="geometry" />
        </mxCell>
        <mxCell id="eHAaFGgThveNmhsqAu0i-2" value="异步拉去ftnmanager删除失败的智研日志" style="html=1;" vertex="1" parent="1">
          <mxGeometry x="284" y="160" width="230" height="50" as="geometry" />
        </mxCell>
        <mxCell id="eHAaFGgThveNmhsqAu0i-7" style="edgeStyle=orthogonalEdgeStyle;rounded=0;orthogonalLoop=1;jettySize=auto;html=1;exitX=0.5;exitY=1;exitDx=0;exitDy=0;" edge="1" parent="1" source="eHAaFGgThveNmhsqAu0i-3" target="eHAaFGgThveNmhsqAu0i-6">
          <mxGeometry relative="1" as="geometry" />
        </mxCell>
        <mxCell id="eHAaFGgThveNmhsqAu0i-3" value="生成删除任务列表" style="rounded=0;whiteSpace=wrap;html=1;" vertex="1" parent="1">
          <mxGeometry x="339" y="260" width="120" height="60" as="geometry" />
        </mxCell>
        <mxCell id="eHAaFGgThveNmhsqAu0i-8" style="edgeStyle=orthogonalEdgeStyle;rounded=0;orthogonalLoop=1;jettySize=auto;html=1;exitX=0.5;exitY=1;exitDx=0;exitDy=0;" edge="1" parent="1" source="eHAaFGgThveNmhsqAu0i-6">
          <mxGeometry relative="1" as="geometry">
            <mxPoint x="399" y="510" as="targetPoint" />
          </mxGeometry>
        </mxCell>
        <mxCell id="eHAaFGgThveNmhsqAu0i-13" style="edgeStyle=orthogonalEdgeStyle;rounded=0;orthogonalLoop=1;jettySize=auto;html=1;exitX=1;exitY=0.5;exitDx=0;exitDy=0;" edge="1" parent="1" source="eHAaFGgThveNmhsqAu0i-6" target="eHAaFGgThveNmhsqAu0i-12">
          <mxGeometry relative="1" as="geometry" />
        </mxCell>
        <mxCell id="eHAaFGgThveNmhsqAu0i-6" value="1s内是否过载，" style="rhombus;whiteSpace=wrap;html=1;" vertex="1" parent="1">
          <mxGeometry x="324.5" y="360" width="149" height="80" as="geometry" />
        </mxCell>
        <mxCell id="eHAaFGgThveNmhsqAu0i-17" style="edgeStyle=orthogonalEdgeStyle;rounded=0;orthogonalLoop=1;jettySize=auto;html=1;exitX=0.5;exitY=1;exitDx=0;exitDy=0;entryX=0.5;entryY=0;entryDx=0;entryDy=0;" edge="1" parent="1" source="eHAaFGgThveNmhsqAu0i-9" target="eHAaFGgThveNmhsqAu0i-10">
          <mxGeometry relative="1" as="geometry" />
        </mxCell>
        <mxCell id="eHAaFGgThveNmhsqAu0i-9" value="生成删除任务timer" style="rounded=0;whiteSpace=wrap;html=1;" vertex="1" parent="1">
          <mxGeometry x="339" y="510" width="120" height="60" as="geometry" />
        </mxCell>
        <mxCell id="eHAaFGgThveNmhsqAu0i-10" value="查询ftnmanager" style="rounded=0;whiteSpace=wrap;html=1;" vertex="1" parent="1">
          <mxGeometry x="339" y="620" width="120" height="60" as="geometry" />
        </mxCell>
        <mxCell id="eHAaFGgThveNmhsqAu0i-14" style="edgeStyle=orthogonalEdgeStyle;rounded=0;orthogonalLoop=1;jettySize=auto;html=1;exitX=0.5;exitY=0;exitDx=0;exitDy=0;" edge="1" parent="1" source="eHAaFGgThveNmhsqAu0i-12">
          <mxGeometry relative="1" as="geometry">
            <mxPoint x="410" y="340" as="targetPoint" />
            <Array as="points">
              <mxPoint x="590" y="340" />
              <mxPoint x="420" y="340" />
            </Array>
          </mxGeometry>
        </mxCell>
        <mxCell id="eHAaFGgThveNmhsqAu0i-12" value="不做操作" style="rounded=0;whiteSpace=wrap;html=1;" vertex="1" parent="1">
          <mxGeometry x="530" y="370" width="120" height="60" as="geometry" />
        </mxCell>
        <mxCell id="eHAaFGgThveNmhsqAu0i-15" value="是" style="text;html=1;strokeColor=none;fillColor=none;align=center;verticalAlign=middle;whiteSpace=wrap;rounded=0;" vertex="1" parent="1">
          <mxGeometry x="480" y="410" width="40" height="20" as="geometry" />
        </mxCell>
        <mxCell id="eHAaFGgThveNmhsqAu0i-16" value="否" style="text;html=1;strokeColor=none;fillColor=none;align=center;verticalAlign=middle;whiteSpace=wrap;rounded=0;" vertex="1" parent="1">
          <mxGeometry x="410" y="460" width="40" height="20" as="geometry" />
        </mxCell>
        <mxCell id="eHAaFGgThveNmhsqAu0i-19" value="retcode是否为-22101" style="rhombus;whiteSpace=wrap;html=1;" vertex="1" parent="1">
          <mxGeometry x="333.5" y="720" width="131" height="80" as="geometry" />
        </mxCell>
      </root>
    </mxGraphModel>
  </diagram>
</mxfile>
